Coordinates
version=1
nRows=7
nColumns=42
inDegrees=yes

Units are S.I. units (second, meters, Newtons, ...)
If the header above contains a line with 'inDegrees', this indicates whether rotational values are in degrees (yes) or radians (no).

endheader
time	pelvis_tilt	pelvis_list	pelvis_rotation	pelvis_tx	pelvis_ty	pelvis_tz	hip_flexion_r	hip_adduction_r	hip_rotation_r	knee_angle_r	knee_adduction_r	knee_angle_r_beta	ankle_angle_r	subtalar_angle_r	mtp_angle_r	hip_flexion_l	hip_adduction_l	hip_rotation_l	knee_angle_l	knee_adduction_l	knee_angle_l_beta	ankle_angle_l	subtalar_angle_l	mtp_angle_l	lumbar_extension	lumbar_bending	lumbar_rotation	arm_flex_r	arm_add_r	arm_rot_r	elbow_flex_r	pro_sup_r	wrist_flex_r	wrist_dev_r	arm_flex_l	arm_add_l	arm_rot_l	elbow_flex_l	pro_sup_l	wrist_flex_l	wrist_dev_l
      0.66000000	     11.33382430	     -4.40711218	     -9.62481847	     -0.43798719	      0.84069669	     -0.17752838	    -28.64981422	      5.43865849	     -4.41689184	     14.24001074	      0.23846826	      0.24853507	     24.93909924	      2.92440699	     -7.62968766	      9.59440481	     -5.53922421	    -14.37147518	      8.38269062	      6.66087123	      0.14630555	      7.71016216	     -4.11229265	     -7.62968766	    -23.32922742	      0.62669244	     15.26079938	     22.85209624	    -11.61095991	     10.31734974	     49.09726251	     90.00000001	      0.00000000	      0.00000000	    -10.21163886	     -0.70429787	    -19.72169975	     18.41693932	     90.00000001	      0.00000000	      0.00000000
      0.67000000	     11.31078447	     -3.92476945	     -9.75479966	     -0.42603828	      0.84023371	     -0.17744970	    -28.53907018	      4.55269318	     -5.67775505	     15.99587574	      0.07950016	      0.27918070	     24.65849427	      4.18115781	     -7.61424948	      9.49820011	     -4.69457302	    -14.01028028	      9.48330800	      6.30772327	      0.16551495	      6.93224623	     -5.33805882	     -7.61424948	    -23.12458793	      0.00058437	     15.20395240	     22.26517530	    -11.35878103	      9.84191580	     48.36323691	     90.00000001	      0.00000000	      0.00000000	     -9.83523277	     -0.70327035	    -21.17836436	     17.92718704	     90.00000001	      0.00000000	      0.00000000
      0.68000000	     11.21708496	     -3.76706862	     -9.84172365	     -0.41415437	      0.84008223	     -0.17694921	    -28.70228182	      4.27495863	     -5.16614372	     17.03375033	     -0.14637800	      0.29729503	     24.14608918	      4.24546027	     -7.61335749	      9.32472292	     -4.37248105	    -13.24720086	     10.40771390	      6.27894813	      0.18164888	      6.78721526	     -5.22147920	     -7.61335749	    -22.94388585	     -0.33503523	     15.29866251	     21.46813413	    -11.35800710	      9.82491113	     47.91125525	     90.00000001	      0.00000000	      0.00000000	     -9.66030532	     -0.86965847	    -21.17567937	     18.07055917	     90.00000001	      0.00000000	      0.00000000
      0.69000000	     11.28625700	     -3.40355103	     -9.89003082	     -0.40249811	      0.84039870	     -0.17716588	    -28.50748832	      3.53424955	     -5.52285971	     19.07392146	     -0.18328587	      0.33290273	     22.43395975	      3.69095810	     -7.61094750	      9.24809104	     -3.72097746	    -13.11584310	     11.85828808	      5.97782648	      0.20696617	      6.48536084	     -5.80771432	     -7.61094750	    -22.96524351	     -0.80857349	     15.22404200	     20.86803637	    -11.16622169	      9.40378304	     47.04095371	     90.00000001	      0.00000000	      0.00000000	     -9.23570935	     -0.98304206	    -21.12880053	     17.85477720	     90.00000001	      0.00000000	      0.00000000
      0.70000000	     11.39107479	     -3.14540320	     -9.87288764	     -0.39076173	      0.84109422	     -0.17714760	    -28.42801534	      3.05029081	     -5.14416594	     20.87697965	     -0.24154125	      0.36437203	     21.22578452	      3.44772476	     -7.60937952	      8.96368311	     -3.24968017	    -12.38610768	     13.01957184	      5.90074334	      0.22723440	      6.43802779	     -5.90159753	     -7.60937952	    -23.06891167	     -1.22185056	     15.16842475	     20.07251132	    -11.07073252	      9.14271809	     46.37240713	     90.00000001	      0.00000000	      0.00000000	     -8.77917850	     -1.13400001	    -21.08366304	     17.88454282	     90.00000001	      0.00000000	      0.00000000
      0.71000000	     11.52595893	     -2.79633406	     -9.83472627	     -0.37893767	      0.84207441	     -0.17721997	    -28.04229590	      2.39759764	     -5.17418310	     23.31297544	     -0.28694884	      0.40688818	     19.18522872	      2.64235062	     -7.60720336	      8.67822944	     -2.67013745	    -11.90643152	     14.23962042	      5.75870869	      0.24852826	      6.54700892	     -6.39430434	     -7.60720336	    -23.17310945	     -1.70756043	     15.08862220	     19.26075394	    -10.89598685	      8.68360299	     45.44837429	     90.00000001	      0.00000000	      0.00000000	     -8.16829919	     -1.37132223	    -20.98864778	     17.73706699	     90.00000001	      0.00000000	      0.00000000
      0.72000000	     11.65421633	     -2.37813170	     -9.77914663	     -0.36714992	      0.84332121	     -0.17728629	    -27.50652954	      1.74907269	     -4.89341466	     25.88625106	     -0.37590388	      0.45180031	     16.83943857	      1.10624261	     -7.60473459	      8.30772840	     -1.99688033	    -10.96879790	     15.24796074	      5.68538140	      0.26612712	      6.51947193	     -7.23000647	     -7.60473459	    -23.27120534	     -2.27624838	     15.00064078	     18.36332113	    -10.68289867	      8.07672253	     44.46045700	     90.00000001	      0.00000000	      0.00000000	     -7.40588475	     -1.61511938	    -20.93932042	     17.52674231	     90.00000001	      0.00000000	      0.00000000
